<svg xmlns="http://www.w3.org/2000/svg" width="1600" height="900" viewBox="0 0 1600 900">
  <!-- Generated by omarchy-theme-preview from colors.toml; do not edit. -->
  <rect width="1600" height="900" fill="#e8e8e8"/>
  <rect x="40" y="40" width="1000" height="680" rx="14" fill="#ffffff" stroke="#6e6e6e" stroke-width="6"/>
  <g font-family="JetBrains Mono, Fira Code, DejaVu Sans Mono, monospace" font-size="30">
    <text x="80" y="110" fill="#3a3a3a">~/repos</text>
    <text x="230" y="110" fill="#000000">git status</text>
    <text x="80" y="160" fill="#000000">On branch</text>
    <text x="260" y="160" fill="#3e3e3e">main</text>
    <text x="80" y="210" fill="#3a3a3a">  modified:   shell.qml</text>
    <text x="80" y="260" fill="#2a2a2a">  deleted:    old.conf</text>
    <text x="80" y="310" fill="#4a4a4a">  untracked:  themes/</text>
    <text x="80" y="390" fill="#1a1a1a">fn</text>
    <text x="130" y="390" fill="#2e2e2e">apply</text>
    <text x="230" y="390" fill="#000000">(theme: &amp;Theme) {</text>
    <text x="120" y="440" fill="#808080">// one palette, every app</text>
    <text x="120" y="490" fill="#4a4a4a">render</text>
    <text x="240" y="490" fill="#000000">(theme)</text>
    <text x="80" y="540" fill="#000000">}</text>
    <rect x="80" y="580" width="18" height="34" fill="#000000"/>
  </g>
  <rect x="1080" y="40" width="480" height="680" rx="14" fill="#c0c0c0" stroke="#c0c0c0" stroke-width="3"/>
  <rect x="860" y="300" width="560" height="340" rx="14" fill="#f5f5f5" stroke="#2e2e2e" stroke-width="6"/>
  <text x="900" y="400" font-family="JetBrains Mono, Fira Code, DejaVu Sans Mono, monospace" font-size="64" font-weight="bold" fill="#000000">White</text>
  <text x="900" y="460" font-family="JetBrains Mono, Fira Code, DejaVu Sans Mono, monospace" font-size="28" fill="#808080">light theme</text>
  <rect x="900" y="520" width="200" height="60" rx="10" fill="#6e6e6e"/>
  <text x="1000" y="560" font-family="JetBrains Mono, Fira Code, DejaVu Sans Mono, monospace" font-size="26" text-anchor="middle" fill="#ffffff">accent</text>
  <rect x="1130" y="520" width="250" height="60" rx="10" fill="none" stroke="#2e2e2e" stroke-width="3"/>
  <text x="1255" y="560" font-family="JetBrains Mono, Fira Code, DejaVu Sans Mono, monospace" font-size="26" text-anchor="middle" fill="#2e2e2e">floating</text>
  <rect x="120" y="780" width="70" height="70" rx="10" fill="#ffffff"/>
  <rect x="205" y="780" width="70" height="70" rx="10" fill="#2a2a2a"/>
  <rect x="290" y="780" width="70" height="70" rx="10" fill="#3a3a3a"/>
  <rect x="375" y="780" width="70" height="70" rx="10" fill="#4a4a4a"/>
  <rect x="460" y="780" width="70" height="70" rx="10" fill="#1a1a1a"/>
  <rect x="545" y="780" width="70" height="70" rx="10" fill="#2e2e2e"/>
  <rect x="630" y="780" width="70" height="70" rx="10" fill="#3e3e3e"/>
  <rect x="715" y="780" width="70" height="70" rx="10" fill="#000000"/>
  <rect x="800" y="780" width="70" height="70" rx="10" fill="#808080"/>
  <rect x="885" y="780" width="70" height="70" rx="10" fill="#2a2a2a"/>
  <rect x="970" y="780" width="70" height="70" rx="10" fill="#3a3a3a"/>
  <rect x="1055" y="780" width="70" height="70" rx="10" fill="#4a4a4a"/>
  <rect x="1140" y="780" width="70" height="70" rx="10" fill="#1a1a1a"/>
  <rect x="1225" y="780" width="70" height="70" rx="10" fill="#2e2e2e"/>
  <rect x="1310" y="780" width="70" height="70" rx="10" fill="#3e3e3e"/>
  <rect x="1395" y="780" width="70" height="70" rx="10" fill="#000000"/>
</svg>
