<svg xmlns="http://www.w3.org/2000/svg" width="1600" height="900" viewBox="0 0 1600 900">
  <!-- Generated by omarchy-theme-preview from colors.toml; do not edit. -->
  <rect width="1600" height="900" fill="#0b1216"/>
  <rect x="40" y="40" width="1000" height="680" rx="14" fill="#16242d" stroke="#8bc9eb" stroke-width="6"/>
  <g font-family="JetBrains Mono, Fira Code, DejaVu Sans Mono, monospace" font-size="30">
    <text x="80" y="110" fill="#5e95bc">~/repos</text>
    <text x="230" y="110" fill="#d6e2ee">git status</text>
    <text x="80" y="160" fill="#d6e2ee">On branch</text>
    <text x="260" y="160" fill="#b4e4f6">main</text>
    <text x="80" y="210" fill="#5e95bc">  modified:   shell.qml</text>
    <text x="80" y="260" fill="#4d86b0">  deleted:    old.conf</text>
    <text x="80" y="310" fill="#6fa4c9">  untracked:  themes/</text>
    <text x="80" y="390" fill="#6fb8e3">fn</text>
    <text x="130" y="390" fill="#8bc9eb">apply</text>
    <text x="230" y="390" fill="#d6e2ee">(theme: &amp;Theme) {</text>
    <text x="120" y="440" fill="#304860">// one palette, every app</text>
    <text x="120" y="490" fill="#8bc9eb">render</text>
    <text x="240" y="490" fill="#d6e2ee">(theme)</text>
    <text x="80" y="540" fill="#d6e2ee">}</text>
    <rect x="80" y="580" width="18" height="34" fill="#f2fcff"/>
  </g>
  <rect x="1080" y="40" width="480" height="680" rx="14" fill="#1b2d40" stroke="#243d56" stroke-width="3"/>
  <rect x="860" y="300" width="560" height="340" rx="14" fill="#101b21" stroke="#8bc9eb" stroke-width="6"/>
  <text x="900" y="400" font-family="JetBrains Mono, Fira Code, DejaVu Sans Mono, monospace" font-size="64" font-weight="bold" fill="#d6e2ee">Lumon</text>
  <text x="900" y="460" font-family="JetBrains Mono, Fira Code, DejaVu Sans Mono, monospace" font-size="28" fill="#304860">dark theme</text>
  <rect x="900" y="520" width="200" height="60" rx="10" fill="#8bc9eb"/>
  <text x="1000" y="560" font-family="JetBrains Mono, Fira Code, DejaVu Sans Mono, monospace" font-size="26" text-anchor="middle" fill="#16242d">accent</text>
  <rect x="1130" y="520" width="250" height="60" rx="10" fill="none" stroke="#8bc9eb" stroke-width="3"/>
  <text x="1255" y="560" font-family="JetBrains Mono, Fira Code, DejaVu Sans Mono, monospace" font-size="26" text-anchor="middle" fill="#8bc9eb">floating</text>
  <rect x="120" y="780" width="70" height="70" rx="10" fill="#16242d"/>
  <rect x="205" y="780" width="70" height="70" rx="10" fill="#4d86b0"/>
  <rect x="290" y="780" width="70" height="70" rx="10" fill="#5e95bc"/>
  <rect x="375" y="780" width="70" height="70" rx="10" fill="#6fa4c9"/>
  <rect x="460" y="780" width="70" height="70" rx="10" fill="#6fb8e3"/>
  <rect x="545" y="780" width="70" height="70" rx="10" fill="#8bc9eb"/>
  <rect x="630" y="780" width="70" height="70" rx="10" fill="#b4e4f6"/>
  <rect x="715" y="780" width="70" height="70" rx="10" fill="#d6e2ee"/>
  <rect x="800" y="780" width="70" height="70" rx="10" fill="#304860"/>
  <rect x="885" y="780" width="70" height="70" rx="10" fill="#73a6cb"/>
  <rect x="970" y="780" width="70" height="70" rx="10" fill="#86b7d8"/>
  <rect x="1055" y="780" width="70" height="70" rx="10" fill="#9dcae5"/>
  <rect x="1140" y="780" width="70" height="70" rx="10" fill="#f2fcff"/>
  <rect x="1225" y="780" width="70" height="70" rx="10" fill="#b1d8ee"/>
  <rect x="1310" y="780" width="70" height="70" rx="10" fill="#d1eef8"/>
  <rect x="1395" y="780" width="70" height="70" rx="10" fill="#f2fcff"/>
</svg>
