<svg xmlns="http://www.w3.org/2000/svg" width="1600" height="900" viewBox="0 0 1600 900">
  <!-- Generated by omarchy-theme-preview from colors.toml; do not edit. -->
  <rect width="1600" height="900" fill="#e5e2d8"/>
  <rect x="40" y="40" width="1000" height="680" rx="14" fill="#FFFCF0" stroke="#205EA6" stroke-width="6"/>
  <g font-family="JetBrains Mono, Fira Code, DejaVu Sans Mono, monospace" font-size="30">
    <text x="80" y="110" fill="#879A39">~/repos</text>
    <text x="230" y="110" fill="#100F0F">git status</text>
    <text x="80" y="160" fill="#100F0F">On branch</text>
    <text x="260" y="160" fill="#3AA99F">main</text>
    <text x="80" y="210" fill="#879A39">  modified:   shell.qml</text>
    <text x="80" y="260" fill="#D14D41">  deleted:    old.conf</text>
    <text x="80" y="310" fill="#D0A215">  untracked:  themes/</text>
    <text x="80" y="390" fill="#205EA6">fn</text>
    <text x="130" y="390" fill="#CE5D97">apply</text>
    <text x="230" y="390" fill="#100F0F">(theme: &amp;Theme) {</text>
    <text x="120" y="440" fill="#B7B5AC">// one palette, every app</text>
    <text x="120" y="490" fill="#d0772b">render</text>
    <text x="240" y="490" fill="#100F0F">(theme)</text>
    <text x="80" y="540" fill="#100F0F">}</text>
    <rect x="80" y="580" width="18" height="34" fill="#100F0F"/>
  </g>
  <rect x="1080" y="40" width="480" height="680" rx="14" fill="#E6E4D9" stroke="#CECDC3" stroke-width="3"/>
  <rect x="860" y="300" width="560" height="340" rx="14" fill="#f2efe4" stroke="#CE5D97" stroke-width="6"/>
  <text x="900" y="400" font-family="JetBrains Mono, Fira Code, DejaVu Sans Mono, monospace" font-size="59" font-weight="bold" fill="#100F0F">Flexoki Light</text>
  <text x="900" y="460" font-family="JetBrains Mono, Fira Code, DejaVu Sans Mono, monospace" font-size="28" fill="#B7B5AC">light theme</text>
  <rect x="900" y="520" width="200" height="60" rx="10" fill="#205EA6"/>
  <text x="1000" y="560" font-family="JetBrains Mono, Fira Code, DejaVu Sans Mono, monospace" font-size="26" text-anchor="middle" fill="#FFFCF0">accent</text>
  <rect x="1130" y="520" width="250" height="60" rx="10" fill="none" stroke="#CE5D97" stroke-width="3"/>
  <text x="1255" y="560" font-family="JetBrains Mono, Fira Code, DejaVu Sans Mono, monospace" font-size="26" text-anchor="middle" fill="#CE5D97">floating</text>
  <rect x="120" y="780" width="70" height="70" rx="10" fill="#FFFCF0"/>
  <rect x="205" y="780" width="70" height="70" rx="10" fill="#D14D41"/>
  <rect x="290" y="780" width="70" height="70" rx="10" fill="#879A39"/>
  <rect x="375" y="780" width="70" height="70" rx="10" fill="#D0A215"/>
  <rect x="460" y="780" width="70" height="70" rx="10" fill="#205EA6"/>
  <rect x="545" y="780" width="70" height="70" rx="10" fill="#CE5D97"/>
  <rect x="630" y="780" width="70" height="70" rx="10" fill="#3AA99F"/>
  <rect x="715" y="780" width="70" height="70" rx="10" fill="#100F0F"/>
  <rect x="800" y="780" width="70" height="70" rx="10" fill="#B7B5AC"/>
  <rect x="885" y="780" width="70" height="70" rx="10" fill="#D14D41"/>
  <rect x="970" y="780" width="70" height="70" rx="10" fill="#879A39"/>
  <rect x="1055" y="780" width="70" height="70" rx="10" fill="#D0A215"/>
  <rect x="1140" y="780" width="70" height="70" rx="10" fill="#4385BE"/>
  <rect x="1225" y="780" width="70" height="70" rx="10" fill="#CE5D97"/>
  <rect x="1310" y="780" width="70" height="70" rx="10" fill="#3AA99F"/>
  <rect x="1395" y="780" width="70" height="70" rx="10" fill="#100F0F"/>
</svg>
