<svg xmlns="http://www.w3.org/2000/svg" width="1600" height="900" viewBox="0 0 1600 900">
  <!-- Generated by omarchy-theme-preview from colors.toml; do not edit. -->
  <rect width="1600" height="900" fill="#070707"/>
  <rect x="40" y="40" width="1000" height="680" rx="14" fill="#000000" stroke="#8d8d8d" stroke-width="6"/>
  <g font-family="JetBrains Mono, Fira Code, DejaVu Sans Mono, monospace" font-size="30">
    <text x="80" y="110" fill="#b6b6b6">~/repos</text>
    <text x="230" y="110" fill="#ffffff">git status</text>
    <text x="80" y="160" fill="#ffffff">On branch</text>
    <text x="260" y="160" fill="#b0b0b0">main</text>
    <text x="80" y="210" fill="#b6b6b6">  modified:   shell.qml</text>
    <text x="80" y="260" fill="#a4a4a4">  deleted:    old.conf</text>
    <text x="80" y="310" fill="#cecece">  untracked:  themes/</text>
    <text x="80" y="390" fill="#8d8d8d">fn</text>
    <text x="130" y="390" fill="#9b9b9b">apply</text>
    <text x="230" y="390" fill="#ffffff">(theme: &amp;Theme) {</text>
    <text x="120" y="440" fill="#7a7a7a">// one palette, every app</text>
    <text x="120" y="490" fill="#b9b9b9">render</text>
    <text x="240" y="490" fill="#ffffff">(theme)</text>
    <text x="80" y="540" fill="#ffffff">}</text>
    <rect x="80" y="580" width="18" height="34" fill="#ffffff"/>
  </g>
  <rect x="1080" y="40" width="480" height="680" rx="14" fill="#1a1a1a" stroke="#1a1a1a" stroke-width="3"/>
  <rect x="860" y="300" width="560" height="340" rx="14" fill="#090909" stroke="#9b9b9b" stroke-width="6"/>
  <text x="900" y="400" font-family="JetBrains Mono, Fira Code, DejaVu Sans Mono, monospace" font-size="64" font-weight="bold" fill="#ffffff">Vantablack</text>
  <text x="900" y="460" font-family="JetBrains Mono, Fira Code, DejaVu Sans Mono, monospace" font-size="28" fill="#7a7a7a">dark theme</text>
  <rect x="900" y="520" width="200" height="60" rx="10" fill="#8d8d8d"/>
  <text x="1000" y="560" font-family="JetBrains Mono, Fira Code, DejaVu Sans Mono, monospace" font-size="26" text-anchor="middle" fill="#000000">accent</text>
  <rect x="1130" y="520" width="250" height="60" rx="10" fill="none" stroke="#9b9b9b" stroke-width="3"/>
  <text x="1255" y="560" font-family="JetBrains Mono, Fira Code, DejaVu Sans Mono, monospace" font-size="26" text-anchor="middle" fill="#9b9b9b">floating</text>
  <rect x="120" y="780" width="70" height="70" rx="10" fill="#000000"/>
  <rect x="205" y="780" width="70" height="70" rx="10" fill="#a4a4a4"/>
  <rect x="290" y="780" width="70" height="70" rx="10" fill="#b6b6b6"/>
  <rect x="375" y="780" width="70" height="70" rx="10" fill="#cecece"/>
  <rect x="460" y="780" width="70" height="70" rx="10" fill="#8d8d8d"/>
  <rect x="545" y="780" width="70" height="70" rx="10" fill="#9b9b9b"/>
  <rect x="630" y="780" width="70" height="70" rx="10" fill="#b0b0b0"/>
  <rect x="715" y="780" width="70" height="70" rx="10" fill="#ffffff"/>
  <rect x="800" y="780" width="70" height="70" rx="10" fill="#7a7a7a"/>
  <rect x="885" y="780" width="70" height="70" rx="10" fill="#a4a4a4"/>
  <rect x="970" y="780" width="70" height="70" rx="10" fill="#b6b6b6"/>
  <rect x="1055" y="780" width="70" height="70" rx="10" fill="#cecece"/>
  <rect x="1140" y="780" width="70" height="70" rx="10" fill="#8d8d8d"/>
  <rect x="1225" y="780" width="70" height="70" rx="10" fill="#9b9b9b"/>
  <rect x="1310" y="780" width="70" height="70" rx="10" fill="#b0b0b0"/>
  <rect x="1395" y="780" width="70" height="70" rx="10" fill="#ffffff"/>
</svg>
